# xmcd
#
# Track frame offsets: 
#        150
#        26522
#        42522
#        74080
#        97212
#        119445
#        139322
#        169707
#
# Disc length: 2482 seconds
#
# Revision: 0
# Processed by: cddbd v1.5.1PL0 Copyright (c) Steve Scherf et al.
# Submitted via: ExactAudioCopy v0.95a4
#
DISCID=7a09b008
DTITLE=Paul Kossoff - Paul Kossoff with Back Street Crawler and Free
DYEAR=1968
DGENRE=Blues
TTITLE0=The Band Plays On
TTITLE1=Side Kick To The Stars
TTITLE2=Long Way Down To The Top
TTITLE3=New York, New York
TTITLE4=Main Song
TTITLE5=Surviver
TTITLE6=Steeling My Way
TTITLE7=All The Girls Are Crazy
EXTD=
EXTT0=
EXTT1=
EXTT2=
EXTT3=
EXTT4=
EXTT5=
EXTT6=
EXTT7=
PLAYORDER=
